# xmcd
#
# Track frame offsets:
#	150
#	12229
#	31583
#	55695
#	72873
#	87588
#	108639
#	125645
#	137354
#	155657
#	182583
#	202408
#	204285
#	260458
#	283233
#	298446
#	326264
#	342620
#
# Disc length: 4733 seconds
# Revision: 1
# Processed by: cddbd v1.5.2PL0 Copyright (c) Steve Scherf et al.
# Submitted via: dBpowerAMP V12.0
#
DISCID=1a127b12
DTITLE=Delta Wires - Anthology
DYEAR=2013
DGENRE=Blues
TTITLE0=Three For Dizzy
TTITLE1=Smack Dab in the Middle
TTITLE2=Take Off Your Pajamas
TTITLE3=Tippin' Into The Blues
TTITLE4=Weary Man
TTITLE5=Why Did You Leave
TTITLE6=Saturday Night in North Beach
TTITLE7=Honey Bee
TTITLE8=Got Me Where You Want Me
TTITLE9=Monkey Man
TTITLE10=Don't Want No Woman (Telling Me How To Live My Life)
TTITLE11=Introduction
TTITLE12=Keep Your Hand Outta My Pocket/Pontiac Blues
TTITLE13=In The Middle
TTITLE14=Goin' Away
TTITLE15=Big Legged Woman
TTITLE16=Them That's Got
TTITLE17=Kathleen Lawton KCSM-FM-Interview
EXTD=
EXTT0=
EXTT1=
EXTT2=
EXTT3=
EXTT4=
EXTT5=
EXTT6=
EXTT7=
EXTT8=
EXTT9=
EXTT10=
EXTT11=
EXTT12=
EXTT13=
EXTT14=
EXTT15=
EXTT16=
EXTT17=
PLAYORDER=
